<svg width="512" height="512" viewBox="0 0 512 512" fill="none" xmlns="http://www.w3.org/2000/svg">
<rect width="512" height="512" rx="60" fill="white"/>
<path d="M256 251.999C256 234.229 263.059 217.188 275.624 204.623C288.189 192.058 305.23 184.999 323 184.999C340.769 184.999 357.811 192.058 370.376 204.623C382.941 217.188 390 234.229 390 251.999C390 269.768 382.941 286.81 370.376 299.375C357.811 311.94 340.769 318.999 323 318.999C305.23 318.999 288.189 311.94 275.624 299.375C263.059 286.81 256 269.768 256 251.999V251.999Z" fill="#1ABCFE"/>
<path d="M122 386C122 368.23 129.059 351.189 141.624 338.624C154.189 326.059 171.23 319 189 319H256V386C256 403.769 248.941 420.811 236.376 433.376C223.811 445.941 206.769 453 189 453C171.23 453 154.189 445.941 141.624 433.376C129.059 420.811 122 403.769 122 386V386Z" fill="#0ACF83"/>
<path d="M256 51V185H323C340.769 185 357.811 177.941 370.376 165.376C382.941 152.811 390 135.769 390 118C390 100.23 382.941 83.1888 370.376 70.6238C357.811 58.0589 340.769 51 323 51L256 51Z" fill="#FF7262"/>
<path d="M122 118C122 135.769 129.059 152.811 141.624 165.376C154.189 177.941 171.23 185 189 185H256V51H189C171.23 51 154.189 58.0589 141.624 70.6238C129.059 83.1888 122 100.23 122 118H122Z" fill="#F24E1E"/>
<path d="M122 251.999C122 269.768 129.059 286.81 141.624 299.375C154.189 311.94 171.23 318.999 189 318.999H256V184.999H189C171.23 184.999 154.189 192.058 141.624 204.623C129.059 217.188 122 234.229 122 251.999H122Z" fill="#A259FF"/>
</svg>
