<svg width="512" height="512" viewBox="0 0 512 512" fill="none" xmlns="http://www.w3.org/2000/svg">
<rect width="512" height="512" rx="60" fill="white"/>
<path d="M456.08 242.289L272.705 58.9223C262.146 48.3592 245.02 48.3592 234.452 58.9223L196.377 97.0061L244.677 145.306C255.903 141.512 268.774 144.058 277.719 153.007C286.719 162.012 289.242 174.993 285.352 186.26L331.91 232.813C343.177 228.928 356.168 231.442 365.163 240.451C377.732 253.021 377.732 273.388 365.163 285.967C352.584 298.541 332.217 298.541 319.633 285.967C310.181 276.505 307.841 262.61 312.635 250.964L269.213 207.546V321.802C272.275 323.319 275.169 325.34 277.719 327.89C290.289 340.46 290.289 360.827 277.719 373.411C265.149 385.976 244.768 385.976 232.208 373.411C219.638 360.823 219.638 340.455 232.208 327.89C235.316 324.787 238.913 322.437 242.753 320.865V205.544C238.913 203.972 235.325 201.645 232.208 198.519C222.687 189.002 220.397 175.025 225.279 163.333L177.665 115.71L51.9223 241.438C41.3592 252.011 41.3592 269.137 51.9223 279.7L235.307 463.071C245.865 473.634 262.987 473.634 273.56 463.071L456.08 280.551C466.643 269.987 466.643 252.852 456.08 242.289Z" fill="#F05133"/>
</svg>
