<svg width="512" height="512" viewBox="0 0 512 512" fill="none" xmlns="http://www.w3.org/2000/svg">
<path d="M452 0H60C26.8629 0 0 26.8629 0 60V452C0 485.137 26.8629 512 60 512H452C485.137 512 512 485.137 512 452V60C512 26.8629 485.137 0 452 0Z" fill="white"/>
<path d="M343.934 400.002C354.247 416.842 367.665 429.219 391.396 429.219C411.331 429.219 424.066 419.255 424.066 405.488C424.066 388.99 410.982 383.147 389.039 373.549L377.011 368.388C342.292 353.597 319.228 335.068 319.228 295.896C319.228 259.812 346.722 232.343 389.689 232.343C420.279 232.343 442.271 242.989 458.118 270.865L420.653 294.921C412.404 280.129 403.505 274.302 389.689 274.302C375.597 274.302 366.665 283.242 366.665 294.921C366.665 309.354 375.605 315.197 396.248 324.137L408.275 329.29C449.154 346.819 472.235 364.691 472.235 404.871C472.235 448.187 438.207 471.918 392.509 471.918C347.827 471.918 318.96 450.625 304.835 422.717L343.934 400.002ZM173.974 404.172C181.533 417.581 188.408 428.918 204.938 428.918C220.745 428.918 230.717 422.734 230.717 398.686V235.09H278.829V399.336C278.829 449.154 249.62 471.829 206.986 471.829C168.464 471.829 146.156 451.893 134.811 427.882L173.974 404.172Z" fill="#F2D929"/>
</svg>
