<svg width="512" height="512" viewBox="0 0 512 512" fill="none" xmlns="http://www.w3.org/2000/svg">
<path d="M452 0H60C26.8629 0 0 26.8629 0 60V452C0 485.137 26.8629 512 60 512H452C485.137 512 512 485.137 512 452V60C512 26.8629 485.137 0 452 0Z" fill="white"/>
<path d="M262.486 449.205C257.582 449.205 252.712 447.919 248.412 445.443L203.614 418.921C196.923 415.179 200.188 413.856 202.394 413.093C211.316 409.969 213.126 409.264 222.649 403.856C223.65 403.285 224.96 403.487 225.984 404.091L260.4 424.514C261.643 425.185 263.407 425.185 264.559 424.514L398.749 347.056C399.992 346.351 400.798 344.906 400.798 343.428V188.58C400.798 187.035 399.992 185.658 398.722 184.886L264.586 107.495C263.343 106.756 261.697 106.756 260.454 107.495L126.344 184.886C125.044 185.625 124.218 187.069 124.218 188.547V343.395C124.218 344.873 125.024 346.283 126.301 346.989L163.048 368.217C183 378.194 195.193 366.437 195.193 354.614V201.781C195.193 199.598 196.906 197.918 199.089 197.918H216.086C218.202 197.918 219.948 199.598 219.948 201.781V354.681C219.948 381.284 205.438 396.567 180.212 396.567C172.453 396.567 166.339 396.567 149.276 388.17L114.074 367.882C105.374 362.843 100 353.438 100 343.395V188.547C100 178.47 105.374 169.065 114.074 164.094L248.399 86.6025C256.897 81.7992 268.183 81.7992 276.614 86.6025L410.771 164.127C419.437 169.132 424.845 178.504 424.845 188.58V343.428C424.845 353.472 419.437 362.843 410.771 367.882L276.614 445.373C272.315 447.858 267.444 449.135 262.473 449.135" fill="#689F63"/>
<path d="M303.935 342.502C245.22 342.502 232.91 315.55 232.91 292.944C232.91 290.795 234.643 289.082 236.796 289.082H254.128C256.043 289.082 257.655 290.476 257.957 292.367C260.577 310.028 268.37 318.936 303.874 318.936C332.157 318.936 344.182 312.547 344.182 297.549C344.182 288.917 340.756 282.501 296.821 278.202C260.074 274.574 237.367 266.479 237.367 237.088C237.367 210.015 260.208 193.892 298.466 193.892C341.428 193.892 362.723 208.806 365.411 240.85C365.511 241.959 365.108 243.034 364.369 243.84C363.63 244.612 362.589 245.083 361.514 245.083H344.081C342.267 245.083 340.689 243.806 340.319 242.059C336.12 223.484 325.976 217.539 298.399 217.539C267.53 217.539 263.936 228.288 263.936 236.349C263.936 246.124 268.169 248.979 309.82 254.488C351.068 259.963 370.651 267.688 370.651 296.676C370.651 325.899 346.264 342.66 303.74 342.66L303.935 342.502ZM467.187 178.441H471.688C475.383 178.441 476.088 175.854 476.088 174.343C476.088 170.379 473.367 170.379 471.856 170.379H467.221L467.187 178.441ZM461.712 165.744H471.688C475.114 165.744 481.832 165.744 481.832 173.402C481.832 178.743 478.406 179.852 476.357 180.523C480.354 180.792 480.623 183.412 481.16 187.107C481.429 189.425 481.866 193.422 482.672 194.765H476.525C476.357 193.422 475.416 186.032 475.416 185.629C475.013 183.983 474.442 183.177 472.393 183.177H467.321V194.799H461.712V165.744ZM449.72 180.187C449.72 192.213 459.428 201.953 471.352 201.953C483.377 201.953 493.085 192.011 493.085 180.187C493.085 168.129 483.243 158.556 471.319 158.556C459.562 158.556 449.687 167.994 449.687 180.154L449.72 180.187ZM497.25 180.255C497.25 194.497 485.594 206.119 471.386 206.119C457.278 206.119 445.522 194.631 445.522 180.255C445.522 165.61 457.547 154.391 471.386 154.391C485.325 154.391 497.216 165.643 497.216 180.255" fill="#689F63"/>
</svg>
