<svg width="396" height="402" viewBox="0 0 396 402" fill="none" xmlns="http://www.w3.org/2000/svg">
<path d="M198 235.902C217.529 235.902 233.36 220.071 233.36 200.542C233.36 181.013 217.529 165.182 198 165.182C178.471 165.182 162.64 181.013 162.64 200.542C162.64 220.071 178.471 235.902 198 235.902Z" fill="#61DAFB"/>
<path d="M198 272.986C302.789 272.986 387.737 240.551 387.737 200.541C387.737 160.531 302.789 128.096 198 128.096C93.2106 128.096 8.26221 160.531 8.26221 200.541C8.26221 240.551 93.2106 272.986 198 272.986Z" stroke="#61DAFB" stroke-width="16"/>
<path d="M135.26 236.763C187.655 327.513 258.218 384.863 292.868 364.858C327.518 344.852 313.133 255.068 260.739 164.317C208.344 73.5674 137.781 16.2174 103.131 36.2226C68.4807 56.2278 82.8655 146.013 135.26 236.763Z" stroke="#61DAFB" stroke-width="16"/>
<path d="M135.26 164.318C82.8658 255.068 68.481 344.852 103.131 364.858C137.781 384.863 208.345 327.513 260.739 236.763C313.134 146.013 327.519 56.2279 292.869 36.2227C258.218 16.2175 187.655 73.5675 135.26 164.318Z" stroke="#61DAFB" stroke-width="16"/>
</svg>
