<svg width="512" height="512" viewBox="0 0 512 512" fill="none" xmlns="http://www.w3.org/2000/svg">
<path d="M452 0H60C26.8629 0 0 26.8629 0 60V452C0 485.137 26.8629 512 60 512H452C485.137 512 512 485.137 512 452V60C512 26.8629 485.137 0 452 0Z" fill="white"/>
<path d="M399.709 278.883C385.824 278.956 373.757 282.306 363.652 287.258C359.944 279.903 356.237 273.349 355.583 268.542C354.856 262.935 353.983 259.512 354.856 252.812C355.728 246.113 359.654 236.573 359.581 235.845C359.508 235.116 358.708 231.694 350.712 231.621C342.715 231.548 335.809 233.15 335.009 235.262C334.21 237.374 332.683 242.18 331.665 247.132C330.284 254.415 315.672 280.413 307.312 294.031C304.622 288.715 302.296 284.054 301.787 280.34C301.06 274.732 300.188 271.31 301.06 264.61C301.933 257.91 305.858 248.37 305.786 247.642C305.713 246.914 304.913 243.491 296.917 243.418C288.92 243.345 282.014 244.948 281.214 247.059C280.415 249.171 279.542 254.123 277.87 258.93C276.198 263.736 256.788 307.139 251.7 318.354C249.083 324.107 246.829 328.695 245.23 331.826C245.23 331.826 245.157 332.045 244.939 332.409C243.558 335.103 242.758 336.56 242.758 336.56C242.758 336.56 242.758 336.56 242.758 336.633C241.668 338.599 240.504 340.42 239.923 340.42C239.487 340.42 238.687 335.176 240.068 328.039C242.976 312.965 249.882 289.516 249.81 288.715C249.81 288.278 251.118 284.2 245.302 282.088C239.632 279.976 237.597 283.471 237.088 283.471C236.579 283.471 236.215 284.709 236.215 284.709C236.215 284.709 242.54 258.347 224.148 258.347C212.662 258.347 196.814 270.946 188.963 282.306C184.019 285.001 173.478 290.754 162.211 296.944C157.921 299.347 153.487 301.75 149.343 304.008C149.053 303.716 148.762 303.352 148.471 303.061C126.226 279.248 85.0798 262.425 86.8245 230.456C87.4788 218.804 91.4771 188.218 165.845 151.078C227.056 120.856 275.762 129.23 284.195 147.801C296.262 174.308 258.097 223.537 194.851 230.674C170.716 233.369 158.067 224.047 154.868 220.552C151.524 216.91 151.015 216.692 149.779 217.42C147.744 218.512 149.053 221.79 149.779 223.683C151.67 228.635 159.448 237.374 172.606 241.67C184.237 245.457 212.516 247.569 246.756 234.315C285.067 219.459 315.018 178.168 306.222 143.577C297.426 108.476 239.269 96.8967 184.237 116.486C151.524 128.138 116.048 146.49 90.532 170.376C60.2177 198.777 55.4197 223.464 57.3825 233.805C64.4341 270.509 114.958 294.395 135.168 312.091C134.15 312.674 133.205 313.183 132.405 313.62C122.3 318.645 83.7713 338.817 74.1754 360.155C63.2709 384.332 75.9201 401.664 84.2802 403.995C110.233 411.204 136.912 398.242 151.233 376.831C165.555 355.421 163.81 327.603 157.194 314.858C157.122 314.713 157.049 314.567 156.904 314.421C159.521 312.892 162.211 311.29 164.828 309.761C169.989 306.702 175.078 303.862 179.44 301.532C176.968 308.304 175.15 316.388 174.278 328.039C173.188 341.73 178.785 359.499 186.128 366.49C189.399 369.549 193.252 369.622 195.723 369.622C204.302 369.622 208.155 362.485 212.444 354.038C217.678 343.697 222.403 331.681 222.403 331.681C222.403 331.681 216.515 364.16 232.508 364.16C238.323 364.16 244.212 356.586 246.829 352.727C246.829 352.8 246.829 352.8 246.829 352.8C246.829 352.8 246.974 352.581 247.265 352.071C247.847 351.125 248.21 350.542 248.21 350.542C248.21 350.542 248.21 350.469 248.21 350.396C250.536 346.318 255.771 337.07 263.549 321.704C273.581 301.896 283.25 277.136 283.25 277.136C283.25 277.136 284.122 283.18 287.103 293.23C288.847 299.128 292.482 305.61 295.39 311.873C293.064 315.15 291.61 316.97 291.61 316.97C291.61 316.97 291.61 316.97 291.683 317.043C289.792 319.519 287.757 322.214 285.503 324.835C277.579 334.302 268.129 345.153 266.82 348.284C265.294 351.999 265.657 354.693 268.565 356.878C270.673 358.48 274.454 358.698 278.306 358.48C285.431 357.97 290.447 356.222 292.918 355.13C296.771 353.746 301.278 351.634 305.495 348.503C313.273 342.75 317.999 334.521 317.562 323.67C317.344 317.699 315.382 311.727 312.983 306.12C313.71 305.1 314.364 304.08 315.091 303.061C327.376 285.073 336.9 265.338 336.9 265.338C336.9 265.338 337.772 271.383 340.752 281.432C342.206 286.53 345.187 292.065 347.804 297.453C336.245 306.848 329.121 317.771 326.577 324.908C321.997 338.162 325.559 344.134 332.32 345.517C335.373 346.173 339.735 344.716 342.933 343.332C347.004 342.022 351.802 339.764 356.382 336.414C364.161 330.661 371.648 322.651 371.212 311.8C370.994 306.848 369.686 301.969 367.868 297.235C377.682 293.157 390.331 290.899 406.47 292.793C441.073 296.871 447.907 318.5 446.598 327.603C445.29 336.706 438.02 341.658 435.621 343.187C433.222 344.716 432.422 345.226 432.641 346.318C432.931 347.92 434.095 347.848 436.13 347.556C438.965 347.046 454.304 340.201 454.958 323.452C456.049 302.041 435.694 278.665 399.709 278.883ZM132.769 369.039C121.283 381.565 105.289 386.299 98.3832 382.293C90.9682 377.997 93.8761 359.499 107.979 346.245C116.557 338.162 127.607 330.661 134.949 326.073C136.621 325.054 139.093 323.597 142.074 321.777C142.583 321.485 142.873 321.34 142.873 321.34C143.455 320.976 144.036 320.611 144.618 320.247C149.779 339.182 144.836 355.858 132.769 369.039ZM216.369 312.091C212.371 321.849 204.011 346.828 198.922 345.444C194.56 344.279 191.871 325.345 198.05 306.629C201.176 297.235 207.791 286.02 211.644 281.651C217.896 274.66 224.802 272.329 226.474 275.169C228.582 278.883 218.841 305.974 216.369 312.091ZM285.358 345.153C283.686 346.027 282.087 346.61 281.36 346.173C280.851 345.881 282.087 344.716 282.087 344.716C282.087 344.716 290.737 335.395 294.154 331.171C296.117 328.695 298.443 325.782 300.915 322.505C300.915 322.796 300.915 323.16 300.915 323.452C300.915 334.594 290.156 342.094 285.358 345.153ZM338.572 332.991C337.336 332.118 337.554 329.205 341.698 320.102C343.297 316.533 347.077 310.562 353.547 304.809C354.274 307.139 354.783 309.397 354.71 311.508C354.637 325.563 344.605 330.807 338.572 332.991Z" fill="#CD6799"/>
</svg>
