<svg width="761" height="440" viewBox="0 0 761 440" fill="none" xmlns="http://www.w3.org/2000/svg">
<path d="M759.941 223.825C757.741 341.765 659.641 438.905 541.391 438.925C502.271 438.535 413.721 439.645 391.901 438.565C395.271 431.295 493.681 229.255 518.131 178.085C514.971 182.215 463.801 250.285 459.911 255.315C442.491 206.065 383.841 7.54537 380.911 0.495368C404.371 -0.624632 497.621 0.565368 538.921 0.145368C661.331 0.0253679 763.131 101.445 759.941 223.825ZM255.801 220.505C239.461 241.565 212.901 276.445 196.921 296.995C235.591 217.755 300.001 86.3154 340.511 3.44537C326.011 0.495368 8.79097 2.92537 0.0709704 2.62537C0.0509704 17.0454 0.0509704 328.805 0.0509704 431.885C0.21097 435.635 -0.24903 437.405 0.21097 438.885C2.22097 438.955 291.321 438.965 372.401 438.815V438.795C364.951 427.305 265.991 230.525 255.791 220.495L255.801 220.505Z" fill="#4A4A4A"/>
</svg>
