<?xml version="1.0" encoding="UTF-8"?>
<svg id="Layer_2" data-name="Layer 2" xmlns="http://www.w3.org/2000/svg" viewBox="0 0 416 391.7">
  <defs>
    <style>
      .cls-1 {
        fill: #e6e6e6;
        stroke-width: 0px;
      }
    </style>
  </defs>
  <g id="Layer_2-2" data-name="Layer 2">
    <path class="cls-1" d="M416,2.38c0-1.1-.88-1.99-1.98-1.99-34.05.05-122.3.16-155.26.24-23.58.06-48.9.16-74.92.28-.44-.31-.88-.62-1.33-.91.4.3.8.61,1.2.91C121.82,1.21,55.97,1.69,0,2.37c32.39.38,68.07.71,104.36.98,1.31.77,2.54,1.67,3.72,2.63,11.55,10.02,18.78,24.53,21.82,39.37.91,4.29,1.64,8.63,2.18,13.02,1.69,12.73,2.31,25.49,2.89,38.36-29.3,10.51-58.5,21.14-87.56,31.86,25.09-8.06,50.3-16.32,75.55-24.71,3.41,2.29,6.2,5.43,8.78,8.59,6.65,8.66,11.27,18.71,14.83,28.98,11.33,32.37,10.92,67.35,8.19,101.19-4.46,4.12-8.88,8.21-13.24,12.26,0,0-39,36.06-39,36.06,9.86-8.69,29.96-26.5,39.74-35.23,8.02-7.15,16.13-14.38,24.3-21.68,1.53.03,3.04.24,4.55.45,4.66.76,9.5,2.12,13.99,3.54,19.12,6.48,37.37,15.55,54.99,25.37,29.59,17.75,50.61,47.91,60.81,80.61-1.73,5.43-3.47,10.87-5.19,16.27,4.07-11.76,8.13-23.63,12.2-35.55,18.3.14,36.85-.6,54.74,3.39,17.73,4.62,34.25,13.15,50.05,22.48.1,13.81.21,27.52.34,41.09,1.87-125.82,2.44-263.28,2.97-389.33ZM412.03,195.63c-7.04-9.49-19.05-14.41-30.66-15.19-6.82-.46-13.79-.55-20.56.63-1.71.34-3.47.71-5.14,1.32,5.77-17.36,11.54-34.71,17.3-52.02,6.21-2.95,13.46-4.13,20.31-3.41,6.83.98,13.08,4.46,18.69,8.42,0,20.03.03,40.14.06,60.25ZM334.1,239.99c-4.4-10.64-10.76-20.31-18.52-28.75-6.75-7.17-14.64-13.38-23.46-17.81-4.82-2.53-10.32-4.72-15.38-6.67-14.5-5.37-29.51-9.7-44.97-11.08,13.2-11.85,26.44-23.76,39.67-35.7,0,.01.01.02.01.02,3.92-.2,7.92.53,11.82,1.24,8.17,1.6,16.25,3.95,24.19,6.5,16.43,4.91,34,12.67,41.89,28.84,1.2,2.45,2.15,5.11,2.6,7.8-5.98,18.55-11.93,37.11-17.85,55.61ZM314.25,59.01c-2.24-6.91-7.22-12.49-13.38-16.18,10.13-3.57,20.24-7.16,30.34-10.75,13.41,5.62,22.3,18.49,16.92,33.1-10.68,9.85-21.53,19.83-32.49,29.9.31-3.8.51-7.6.63-11.42.12-8.24.22-16.55-2.02-24.65ZM350.5,68.16c3.29-.08,6.71.04,10.02.36,10.9.95,19.21,3.77,24.79,13.49-4.85,14.69-9.69,29.45-14.52,44.25-6.74-8.2-13.96-16.24-23.46-21.29-5.48-2.52-11.15-3.85-16.82-4.94-4.28-.8-8.55-1.42-12.86-1.9,11.03-10.04,22-20.04,32.85-29.98ZM377.2,69.11c-6.93-3.67-14.71-4.62-22.44-4.85,14.77-13.55,29.32-26.97,43.55-40.17.81-.8,2.92-2.81,3.65-3.62,1.07-1.06,4.23-5.2,5.32-6.51,0,0,.98-1.23,1.35-1.69-7.37,21.77-14.73,43.82-22.08,66.05-2.34-3.75-5.47-6.96-9.33-9.21ZM409.92,4.34c-2.46,3.06-5.76,7.15-5.76,7.15,0,0-4.17,5.18-4.17,5.18-.72.89-1.3,1.43-2.11,2.24,0,0-2.36,2.29-2.36,2.29-13.56,12.68-27.68,25.77-42.14,39.13,1.98-13.05-6.6-24.45-18.07-29.71,24.53-8.73,48.96-17.5,73.24-26.27.46,0,.91,0,1.36,0ZM313.68,101.75c10.81,1.04,22.03,2.37,32.11,6.52,4.8,2.29,9.15,5.98,13.26,9.76,3.79,3.53,7.37,7.36,10.74,11.31-5.42,16.63-10.82,33.31-16.21,50-.76-2.4-1.8-4.68-3.06-6.92-7.49-13.43-21.7-21.46-35.86-26.26-10.04-3.5-20.19-6.65-30.63-8.78-2.73-.49-5.5-1.03-8.29-1.27,12.69-11.46,25.35-22.92,37.93-34.35ZM411.97,135.23c-10.61-9.06-21.38-12.72-35.43-8.91-.84.23-1.66.48-2.47.76,4.86-14.59,9.71-29.13,14.57-43.61,4.51-1.2,9.5-.49,13.78,1.26,3.84,1.7,7.08,4.66,9.56,8.12,0,14.07,0,28.2,0,42.37ZM411.97,92.07c-2.11-3.64-5.08-6.81-8.82-8.84-4.13-2.11-8.9-3.23-13.53-2.68,7.48-22.31,14.95-44.43,22.42-66.29-.03,25.56-.05,51.57-.06,77.82ZM333.27,28.38c2.27-5.62,3.9-11.75,2.13-17.67-.83-2.48-2.4-4.87-4.49-6.47,28.6.04,57.98.08,76.89.11-24.84,7.84-49.69,15.86-74.53,24.04ZM334.09,11.1c1.3,6.35-1.56,12.86-4.37,18.45-10.56,3.48-21.11,6.98-31.67,10.52-.06-8.03-.98-16.53-5.99-23.01-4.53-5.36-10.08-9.67-16.23-12.92,15.17.03,34.5.06,54.26.09,2.02,1.75,3.38,4.28,4,6.87ZM297.11,44.15c1.84.99,3.67,2.24,5.3,3.6,6.2,5.06,9.29,11.95,9.67,19.91.83,10.39.25,21.06-.81,31.44-11.57,10.62-23.25,21.31-34.95,32.02,5.14-16.71,1.74-39.85-6.26-54.7-3.85-7.02-9.74-13.48-17.13-16.79,14.75-5.13,29.48-10.29,44.19-15.48ZM248.66,61.11c2.87.91,5.63,2.5,8,4.31,5.04,3.88,8.97,9.36,11.6,15.13,6.06,13.74,8.44,31.78,5.15,46.43-.87,3.43-2,6.91-3.9,9.89,0,0,.08.12.2.32-12.73,11.65-25.46,23.29-38.09,34.85,2.1-7.23,3.51-14.58,4.28-22.1.91-8.33.68-16.98-.77-25.26-2.07-10.69-6.78-20.69-12.54-29.87-4.67-7.04-10.04-13.71-16.74-18.91,14.28-4.9,28.56-9.83,42.83-14.79ZM202.67,76.97c1.39,1.03,2.77,2.2,4.05,3.4,12.14,11.55,21.56,28.51,24.79,44.95,2.07,12.59,1.04,25.56-1.73,37.98-1.03,4.52-2.26,9.09-3.81,13.36-.08.2-.1.41-.11.62-10.9,9.98-21.72,19.89-32.37,29.67.33-4.22.43-8.39.4-12.59-.18-27.43-6.97-55.13-21.59-78.51-5.34-8.23-11.6-16.48-19.99-21.8,16.78-5.64,33.56-11.34,50.35-17.09ZM227.7,179.34s.05.01.08.01c5.3.23,10.82,1.1,16.09,2.06,13.42,2.57,26.54,6.72,39.13,12,20.41,7.82,36.67,24.01,46.47,43.38,1.24,2.4,2.36,4.93,3.28,7.39-6.19,19.34-12.33,38.61-18.44,57.75-10.66-23.03-26.08-48.87-47.55-62.75-17.49-10.56-35.93-19.45-55.28-26.01-5.58-1.78-11.07-3.47-16.89-4.19,10.97-9.81,22.01-19.7,33.1-29.65ZM334.84,244.9c.12-.08.24-.17.33-.29.68-.81,1.83-1.66,2.73-2.3,7.7-4.97,17.38-5.63,26.33-5.04,16.28,1.35,37.47,6.84,46.43,21.69-9.78-20.02-55.1-31.09-74.21-18.91,6.02-18,12.03-36.06,18.04-54.14,6.84-3.65,15.14-3.56,22.74-3.77,2.31.02,5.8.07,8.04.32,10.08,1.01,20.16,5.46,26.75,13.33.07,39.12.2,78.22.42,116.72-11.96-8.41-25.8-14.62-40.35-16.58-10.91-1.22-22-.12-32.8,1.57-8.07,1.34-16.03,3.06-23.93,5.31,6.5-19.18,12.99-38.5,19.48-57.91ZM258.77,4.11c4.51,0,10.03.02,16.27.03,5.94,3.7,11.39,8.42,15.59,14,3.62,5.05,4.39,11.63,4.61,17.75.05,1.71.03,3.45-.06,5.15-15.33,5.14-30.64,10.34-45.95,15.59.82-4.86,1.32-9.72,1.48-14.64.15-5.89-.1-11.92-2-17.65-3.41-9.8-13.1-16.2-22.48-20.31,11.12.04,22,.07,32.53.1ZM225.72,4.01c4.06,2.04,7.92,4.46,11.45,7.26,4.4,3.56,8.43,8.04,9.94,13.57,2.74,10.7,1.18,22.11-.91,32.83-14.14,4.86-28.27,9.75-42.39,14.68,2.09-14.9,4.17-31.85-.69-46.21-2.99-8.64-8.48-16.38-15.45-22.29,12.92.06,25.64.11,38.05.16ZM201.85,26.55c2.81,9,2.43,18.57,1.71,27.9-.55,6.32-1.53,12.66-2.64,18.91-16.92,5.92-33.82,11.89-50.68,17.91,1.79-15.68,2.69-31.46,1.37-47.22-1.33-14.48-5.94-33.3-19.84-40.52,18.61.12,37.21.22,55.44.31,6.72,6.16,11.96,14.01,14.64,22.7ZM135.83,57.94c-.82-8.44-2.42-16.94-5.33-24.94-3.72-8.92-9.04-17.39-16.3-23.86-1.66-1.45-3.59-2.94-5.48-4.06-1.07-.64-2.17-1.22-3.31-1.72,8.75.06,17.53.12,26.31.18.98.56,1.91,1.2,2.8,1.88,4.83,3.82,8.21,9.2,10.55,14.84,4.73,11.41,5.29,24,5.2,36.21-.13,11.95-1.12,23.95-2.77,35.78-4.09,1.46-8.17,2.92-12.25,4.38,1.66-12.8,1.79-25.85.59-38.7ZM157.4,167.96c-3.27-18.76-9.6-37.65-21.36-52.86-3.59-4.4-7.74-8.69-12.82-11.3,8.62-2.86,17.24-5.75,25.87-8.64.77.43,1.58.95,2.32,1.47,7.59,5.44,13.33,13.01,18.18,20.92,13.9,23.02,20.33,50.06,20.43,76.84.02,5.35-.18,10.79-.79,15.99-.02.17-.02.35,0,.51-11.67,10.72-23.14,21.28-34.3,31.6,5.17-24.37,6.19-49.86,2.47-74.53ZM247.1,263.17c-6.34-4.17-13.8-7.9-20.62-11.2-12.27-5.88-24.94-11.2-38.06-14.86-3.64-1.01-7.71-1.94-11.42-2.54-3.39-.51-6.86-.92-10.28-.65,7.92-7.07,15.91-14.2,23.93-21.38.16.04.32.08.49.08,6.38.34,12.97,2.39,19.12,4.36,19.04,6.36,37.32,15.19,54.56,25.43,21.51,13.72,37.14,40.1,47.99,62.73.08.19.21.34.36.47-4.1,12.86-8.18,25.66-12.24,38.38-6.61-32.42-26.13-62.49-53.82-80.8ZM363.62,324.26c-18.48-3.97-37.29-2.61-55.69.4,2.13-6.23,4.25-12.48,6.38-18.75.05,0,.1,0,.15-.02,18.51-5.5,38.07-9.68,57.47-8.49,14.49,1.54,28.29,7.34,40.51,15.21.07,12.72.15,25.36.24,37.92-14.21-12.06-31.01-21.41-49.07-26.27Z"/>
  </g>
</svg>