<svg xmlns="http://www.w3.org/2000/svg" data-name="Layer 2" viewBox="0 0 760 439.06"><path d="M759.93 223.83c-2.2 117.94-100.3 215.08-218.55 215.1-39.12-.39-127.67.72-149.49-.36 3.37-7.27 101.78-209.31 126.23-260.48-3.16 4.13-54.33 72.2-58.22 77.23C442.48 206.07 383.83 7.55 380.9.5 404.36-.62 497.61.57 538.91.15c122.41-.12 224.21 101.3 221.02 223.68m-504.14-3.32c-16.34 21.06-42.9 55.94-58.88 76.49C235.58 217.76 299.99 86.32 340.5 3.45 326 .5 8.78 2.93.06 2.63.04 17.05.04 328.81.04 431.89c.16 3.75-.3 5.52.16 7 2.01.07 291.11.08 372.19-.07v-.02c-7.45-11.49-106.41-208.27-116.61-218.3Z" data-name="Layer 1" style="fill:#4a4a4a;stroke-width:0"/></svg>