<svg width="100" height="100" viewBox="0 0 100 100" fill="none" xmlns="http://www.w3.org/2000/svg">
<rect width="100" height="100" rx="50" fill="white"/>
<path d="M50 49.9997C50 47.7454 50.8955 45.5834 52.4896 43.9893C54.0836 42.3953 56.2457 41.4998 58.5 41.4998C60.7543 41.4998 62.9163 42.3953 64.5104 43.9893C66.1045 45.5834 67 47.7454 67 49.9997C67 52.2541 66.1045 54.4161 64.5104 56.0102C62.9163 57.6042 60.7543 58.4997 58.5 58.4997C56.2457 58.4997 54.0836 57.6042 52.4896 56.0102C50.8955 54.4161 50 52.2541 50 49.9997V49.9997Z" fill="#BCBCBC"/>
<path d="M33 67C33 64.7457 33.8955 62.5836 35.4896 60.9896C37.0836 59.3955 39.2457 58.5 41.5 58.5H50V67C50 69.2543 49.1045 71.4163 47.5104 73.0104C45.9163 74.6045 43.7543 75.5 41.5 75.5C39.2457 75.5 37.0836 74.6045 35.4896 73.0104C33.8955 71.4163 33 69.2543 33 67V67Z" fill="#838383"/>
<path d="M50 24.5V41.5H58.5C60.7543 41.5 62.9163 40.6045 64.5104 39.0104C66.1045 37.4163 67 35.2543 67 33C67 30.7457 66.1045 28.5836 64.5104 26.9896C62.9163 25.3955 60.7543 24.5 58.5 24.5H50Z" fill="#727272"/>
<path d="M33 33C33 35.2543 33.8955 37.4163 35.4896 39.0104C37.0836 40.6045 39.2457 41.5 41.5 41.5H50V24.5H41.5C39.2457 24.5 37.0836 25.3955 35.4896 26.9896C33.8955 28.5836 33 30.7457 33 33V33Z" fill="#4E4E4E"/>
<path d="M33 49.9997C33 52.2541 33.8955 54.4161 35.4896 56.0102C37.0836 57.6042 39.2457 58.4997 41.5 58.4997H50V41.4998H41.5C39.2457 41.4998 37.0836 42.3953 35.4896 43.9893C33.8955 45.5834 33 47.7454 33 49.9997V49.9997Z" fill="#595959"/>
</svg>
