<svg width="120" height="120" viewBox="0 0 120 120" fill="none" xmlns="http://www.w3.org/2000/svg">
<rect width="120" height="120" rx="60" fill="white"/>
<path d="M92.7174 56.9711L63.0282 27.2834C61.3187 25.5732 58.5458 25.5732 56.8349 27.2834L50.6705 33.4493L58.4903 41.2692C60.3079 40.6549 62.3918 41.0671 63.84 42.5161C65.2971 43.974 65.7056 46.0756 65.0759 47.8998L72.6138 55.437C74.4379 54.808 76.5411 55.215 77.9975 56.6736C80.0325 58.7086 80.0325 62.0062 77.9975 64.0428C75.9609 66.0786 72.6634 66.0786 70.6261 64.0428C69.0957 62.5109 68.7168 60.2612 69.4931 58.3756L62.4628 51.3461V69.8446C62.9586 70.0903 63.4271 70.4174 63.84 70.8303C65.8751 72.8654 65.8751 76.1629 63.84 78.2002C61.8049 80.2346 58.5051 80.2346 56.4716 78.2002C54.4365 76.1622 54.4365 72.8646 56.4716 70.8303C56.9748 70.3278 57.5572 69.9474 58.1788 69.6929V51.022C57.5572 50.7674 56.9763 50.3907 56.4716 49.8846C54.9301 48.3438 54.5593 46.0808 55.3497 44.1878L47.6408 36.4775L27.2827 56.8334C25.5724 58.5451 25.5724 61.318 27.2827 63.0282L56.9733 92.7166C58.6828 94.4268 61.4549 94.4268 63.1666 92.7166L92.7174 63.1658C94.4276 61.4556 94.4276 58.6813 92.7174 56.9711Z" fill="#BCBCBC"/>
</svg>
