<svg width="100" height="100" viewBox="0 0 100 100" fill="none" xmlns="http://www.w3.org/2000/svg">
<rect width="100" height="100" rx="50" fill="white"/>
<path d="M73.0946 47.8619L52.1375 26.9059C50.9309 25.6987 48.9735 25.6987 47.7658 26.9059L43.4145 31.2583L48.9344 36.7782C50.2173 36.3446 51.6883 36.6356 52.7106 37.6584C53.7391 38.6875 54.0275 40.171 53.583 41.4587L58.9038 46.779C60.1915 46.335 61.6761 46.6223 62.7041 47.6519C64.1406 49.0884 64.1406 51.4161 62.7041 52.8537C61.2665 54.2907 58.9388 54.2907 57.5007 52.8537C56.4205 51.7724 56.153 50.1844 56.701 48.8534L51.7385 43.8913V56.9491C52.0884 57.1225 52.4191 57.3534 52.7106 57.6449C54.1471 59.0814 54.1471 61.4091 52.7106 62.8472C51.2741 64.2832 48.9448 64.2832 47.5093 62.8472C46.0728 61.4086 46.0728 59.0809 47.5093 57.6449C47.8645 57.2902 48.2757 57.0217 48.7144 56.842V43.6625C48.2757 43.4829 47.8656 43.217 47.5093 42.8597C46.4212 41.7721 46.1595 40.1747 46.7174 38.8384L41.2759 33.3958L26.9054 47.7647C25.6982 48.973 25.6982 50.9303 26.9054 52.1375L47.8635 73.0941C49.0702 74.3013 51.027 74.3013 52.2352 73.0941L73.0946 52.2347C74.3018 51.0275 74.3018 49.0691 73.0946 47.8619Z" fill="#BCBCBC"/>
</svg>
