<svg width="100" height="100" viewBox="0 0 100 100" fill="none" xmlns="http://www.w3.org/2000/svg">
<rect width="100" height="100" rx="50" fill="white"/>
<path d="M64.2696 71.6222C65.6145 73.818 67.3641 75.432 70.4586 75.432C73.0582 75.432 74.7188 74.1328 74.7188 72.3376C74.7188 70.1862 73.0126 69.4243 70.1513 68.1727L68.5828 67.4998C64.0556 65.571 61.048 63.1548 61.048 58.0467C61.048 53.3414 64.6331 49.7595 70.2361 49.7595C74.225 49.7595 77.0927 51.1477 79.1592 54.7827L74.2737 57.9196C73.1981 55.9908 72.0376 55.231 70.2361 55.231C68.3984 55.231 67.2338 56.3967 67.2338 57.9196C67.2338 59.8017 68.3995 60.5637 71.0913 61.7294L72.6597 62.4013C77.9903 64.6872 81 67.0176 81 72.257C81 77.9055 76.5628 81 70.6038 81C64.7773 81 61.013 78.2234 59.1711 74.5842L64.2696 71.6222ZM42.107 72.1659C43.0925 73.9145 43.9891 75.3928 46.1446 75.3928C48.2059 75.3928 49.5062 74.5864 49.5062 71.4505V50.1177H55.7799V71.5353C55.7799 78.0316 51.9712 80.9883 46.4117 80.9883C41.3884 80.9883 38.4794 78.3888 37 75.2577L42.107 72.1659Z" fill="#BCBCBC"/>
</svg>
