<svg width="100" height="100" viewBox="0 0 100 100" fill="none" xmlns="http://www.w3.org/2000/svg">
<rect width="100" height="100" rx="50" fill="white"/>
<path fill-rule="evenodd" clip-rule="evenodd" d="M47.9298 76.4999C48.5651 76.8657 49.2848 77.0557 50.0094 77.0557L50.0074 77.0453C50.742 77.0453 51.4617 76.8567 52.097 76.4894L71.9204 65.0391C73.2009 64.2946 74 62.9099 74 61.4258V38.5451C74 37.0561 73.2009 35.6713 71.9204 34.9318L52.097 23.4765C50.8512 22.7668 49.1835 22.7668 47.9278 23.4765L28.0796 34.9268C26.7941 35.6614 26 37.0511 26 38.5401V61.4209C26 62.9049 26.7941 64.2946 28.0796 65.0391L33.2811 68.037C35.8025 69.2778 36.7058 69.2778 37.8523 69.2778C41.5798 69.2778 43.7239 67.0195 43.7239 63.0886V40.4956C43.7239 40.173 43.4658 39.9249 43.1531 39.9249H40.6417C40.3191 39.9249 40.066 40.173 40.066 40.4956V63.0786C40.066 64.8257 38.2643 66.5629 35.3161 65.0888L29.8863 61.952C29.6977 61.8477 29.5785 61.6393 29.5785 61.4209V38.5401C29.5785 38.3217 29.7006 38.1083 29.8927 37.9991L49.7092 26.5637C49.8928 26.4545 50.136 26.4545 50.3196 26.5637L70.14 37.9991C70.3277 38.1133 70.4468 38.3168 70.4468 38.5451V61.4258C70.4468 61.6442 70.3277 61.8577 70.144 61.9619L50.3157 73.4072C50.1454 73.5065 49.8849 73.5065 49.7012 73.4072L44.6158 70.3896C44.4644 70.3002 44.2709 70.2704 44.123 70.3548C42.7159 71.1539 42.4484 71.2581 41.1301 71.7197C40.804 71.8324 40.3216 72.0279 41.3103 72.5808L47.9298 76.4999ZM45.6391 53.9662C45.6391 57.3065 47.4582 61.2891 56.134 61.2891L56.1052 61.3124C62.3888 61.3124 65.9921 58.8357 65.9921 54.5177C65.9921 50.2343 63.0985 49.0928 57.0036 48.2838C50.8491 47.4698 50.2237 47.0479 50.2237 45.6036C50.2237 44.4124 50.7548 42.8241 55.3161 42.8241C59.3909 42.8241 60.8899 43.7026 61.5103 46.4473C61.5649 46.7054 61.7981 46.894 62.0662 46.894H64.6421C64.8009 46.894 64.9548 46.8246 65.064 46.7104C65.1732 46.5913 65.2327 46.4325 65.2178 46.2687C64.8208 41.5337 61.6741 39.33 55.326 39.33C49.6728 39.33 46.2978 41.7124 46.2978 45.7128C46.2978 50.0557 49.653 51.2518 55.0828 51.7878C61.5748 52.4232 62.081 53.3711 62.081 54.6467C62.081 56.8628 60.3042 57.8068 56.1251 57.8068C50.8789 57.8068 49.7274 56.4906 49.3403 53.8809C49.2956 53.6014 49.0574 53.3955 48.7745 53.3955H46.2134C45.8952 53.3955 45.6391 53.6486 45.6391 53.9662Z" fill="#BCBCBC"/>
</svg>
