<svg width="100" height="100" viewBox="0 0 100 100" fill="none" xmlns="http://www.w3.org/2000/svg">
<rect width="100" height="100" rx="50" fill="white"/>
<path fill-rule="evenodd" clip-rule="evenodd" d="M62.4076 28.5093C63.2295 28.9838 63.8709 29.931 64.2022 31.4802C64.5335 33.0292 64.5233 35.0588 64.1387 37.4594C63.987 38.4066 63.7784 39.4024 63.5142 40.4377C61.2566 39.9225 58.7907 39.534 56.181 39.2943C54.6686 37.1541 53.099 35.2127 51.5241 33.5151C52.2886 32.7687 53.0467 32.0902 53.7911 31.4852C55.6778 29.9518 57.4304 28.9282 58.9375 28.4406C60.4448 27.953 61.5858 28.0348 62.4076 28.5093ZM48.4759 33.5151C47.7114 32.7687 46.9533 32.0902 46.2089 31.4852C44.3222 29.9519 42.5696 28.9282 41.0625 28.4406C39.5552 27.953 38.4142 28.0348 37.5924 28.5093C36.7705 28.9839 36.1291 29.931 35.7978 31.4802C35.4665 33.0292 35.4767 35.0589 35.8613 37.4594C36.013 38.4066 36.2216 39.4024 36.4857 40.4377C38.7433 39.9225 41.2093 39.534 43.819 39.2943C45.3314 37.1541 46.9009 35.2127 48.4759 33.5151ZM50 31.9499C49.1902 31.1594 48.3835 30.4374 47.5868 29.7898C45.579 28.158 43.5886 26.9617 41.7349 26.362C39.8814 25.7624 38.0438 25.726 36.5 26.6173C34.9562 27.5086 34.0689 29.1183 33.6614 31.0233C33.2539 32.9284 33.2948 35.2503 33.7041 37.8051C33.8665 38.8188 34.0884 39.8785 34.3681 40.975C33.2787 41.281 32.25 41.6186 31.2909 41.9848C28.8738 42.9077 26.8425 44.0333 25.3963 45.3388C23.9503 46.6441 23 48.2175 23 50C23 51.7826 23.9503 53.3559 25.3963 54.6613C26.8425 55.9668 28.8738 57.0924 31.2909 58.0152C32.25 58.3814 33.2787 58.7191 34.3681 59.0251C34.0884 60.1216 33.8665 61.1812 33.7041 62.1949C33.2948 64.7497 33.2539 67.0716 33.6614 68.9767C34.0689 70.8817 34.9562 72.4914 36.5 73.3827C38.0438 74.2739 39.8814 74.2376 41.7349 73.638C43.5886 73.0383 45.579 71.842 47.5868 70.2101C48.3835 69.5626 49.1902 68.8406 50 68.0501C50.8097 68.8406 51.6165 69.5627 52.4132 70.2102C54.421 71.842 56.4114 73.0384 58.2651 73.638C60.1186 74.2377 61.9562 74.274 63.5 73.3827C65.0438 72.4914 65.9311 70.8818 66.3386 68.9768C66.7461 67.0716 66.7052 64.7497 66.2959 62.195C66.1335 61.1813 65.9116 60.1216 65.6319 59.0251C66.7213 58.7191 67.75 58.3814 68.7091 58.0152C71.1262 57.0924 73.1575 55.9668 74.6037 54.6613C76.0497 53.3559 77 51.7826 77 50C77 48.2175 76.0497 46.6441 74.6037 45.3388C73.1575 44.0333 71.1262 42.9077 68.7091 41.9848C67.75 41.6186 66.7213 41.281 65.6318 40.975C65.9116 39.8785 66.1335 38.8187 66.2959 37.805C66.7052 35.2503 66.7461 32.9284 66.3386 31.0232C65.9311 29.1182 65.0438 27.5086 63.5 26.6173C61.9562 25.726 60.1186 25.7623 58.2651 26.3619C56.4114 26.9616 54.421 28.158 52.4132 29.7898C51.6165 30.4373 50.8097 31.1594 50 31.9499ZM62.917 42.5424C61.3138 42.1808 59.5921 41.8838 57.7775 41.6618C58.3694 42.5816 58.9489 43.5313 59.5127 44.5078C60.0765 45.4844 60.6092 46.4611 61.1098 47.4336C61.825 45.7511 62.4285 44.1116 62.917 42.5424ZM62.3619 50C63.4592 47.6201 64.3557 45.2902 65.0383 43.0775C66.067 43.3664 67.0336 43.6837 67.9298 44.0258C70.2011 44.893 71.9639 45.899 73.1397 46.9605C74.3157 48.022 74.8153 49.051 74.8153 50C74.8153 50.9491 74.3157 51.9781 73.1397 53.0396C71.9639 54.1011 70.2011 55.107 67.9298 55.9742C67.0337 56.3164 66.067 56.6337 65.0384 56.9225C64.3557 54.7098 63.4592 52.3799 62.3619 50ZM59.9472 50C59.2493 48.5487 58.4731 47.0766 57.6207 45.6002C56.7683 44.1238 55.8815 42.7155 54.9736 41.3855C53.3678 41.2642 51.7048 41.2004 50 41.2004C48.2951 41.2004 46.6322 41.2642 45.0264 41.3855C44.1185 42.7155 43.2317 44.1237 42.3793 45.6001C41.5269 47.0766 40.7507 48.5487 40.0528 50C40.7507 51.4513 41.5269 52.9234 42.3793 54.3998C43.2317 55.8763 44.1185 57.2845 45.0264 58.6145C46.6322 58.7358 48.2952 58.7997 50 58.7997C51.7048 58.7997 53.3678 58.7358 54.9735 58.6145C55.8815 57.2845 56.7683 55.8763 57.6207 54.3998C58.4731 52.9234 59.2493 51.4513 59.9472 50ZM57.7774 58.3382C58.3693 57.4184 58.9489 56.4687 59.5127 55.4922C60.0765 54.5156 60.6092 53.5389 61.1098 52.5664C61.825 54.2489 62.4285 55.8885 62.917 57.4577C61.3138 57.8192 59.5921 58.1163 57.7774 58.3382ZM53.3323 60.9046C52.2398 60.9573 51.1276 60.9844 50 60.9844C48.8724 60.9844 47.7602 60.9573 46.6677 60.9046C47.7672 62.3652 48.8853 63.7076 50 64.9152C51.1147 63.7076 52.2328 62.3652 53.3323 60.9046ZM51.5241 66.4849C53.099 64.7873 54.6685 62.846 56.1809 60.7058C58.7906 60.4661 61.2566 60.0775 63.5143 59.5624C63.7784 60.5977 63.987 61.5934 64.1387 62.5406C64.5233 64.9412 64.5335 66.9708 64.2022 68.5198C63.8708 70.069 63.2295 71.0162 62.4076 71.4907C61.5858 71.9652 60.4448 72.047 58.9375 71.5594C57.4304 71.0718 55.6778 70.0482 53.7911 68.5148C53.0467 67.9098 52.2886 67.2313 51.5241 66.4849ZM48.4759 66.4849C46.9009 64.7873 45.3314 62.846 43.819 60.7058C41.2094 60.4661 38.7433 60.0775 36.4857 59.5624C36.2216 60.5976 36.013 61.5934 35.8613 62.5405C35.4767 64.9411 35.4665 66.9707 35.7978 68.5198C36.1291 70.069 36.7705 71.0161 37.5924 71.4906C38.4142 71.9651 39.5552 72.047 41.0625 71.5593C42.5696 71.0718 44.3222 70.0481 46.2089 68.5148C46.9533 67.9097 47.7114 67.2313 48.4759 66.4849ZM37.083 57.4577C38.6862 57.8192 40.4079 58.1163 42.2225 58.3382C41.6306 57.4184 41.0511 56.4688 40.4873 55.4922C39.9234 54.5156 39.3908 53.5389 38.8902 52.5664C38.175 54.2489 37.5715 55.8885 37.083 57.4577ZM38.8902 47.4336C39.3908 46.4611 39.9234 45.4843 40.4873 44.5078C41.0511 43.5313 41.6306 42.5816 42.2225 41.6619C40.4078 41.8838 38.6862 42.1809 37.083 42.5424C37.5715 44.1116 38.175 45.7511 38.8902 47.4336ZM37.638 50C36.5408 52.3799 35.6443 54.7098 34.9616 56.9225C33.933 56.6337 32.9663 56.3164 32.0702 55.9742C29.7989 55.107 28.0361 54.1011 26.8603 53.0396C25.6843 51.9781 25.1847 50.9491 25.1847 50C25.1847 49.051 25.6843 48.022 26.8603 46.9605C28.0361 45.899 29.7989 44.893 32.0702 44.0258C32.9663 43.6837 33.933 43.3664 34.9616 43.0775C35.6443 45.2902 36.5408 47.6201 37.638 50ZM46.6676 39.0955C47.7601 39.0428 48.8724 39.0157 50 39.0157C51.1276 39.0157 52.2398 39.0428 53.3324 39.0955C52.2328 37.6348 51.1147 36.2924 50 35.0847C48.8852 36.2924 47.7671 37.6348 46.6676 39.0955ZM54.8283 50.0002C54.8283 52.6668 52.6666 54.8285 50 54.8285C47.3335 54.8285 45.1718 52.6668 45.1718 50.0002C45.1718 47.3337 47.3335 45.172 50 45.172C52.6666 45.172 54.8283 47.3337 54.8283 50.0002Z" fill="#BCBCBC" stroke="#BCBCBC"/>
</svg>
