<svg width="100" height="100" viewBox="0 0 100 100" fill="none" xmlns="http://www.w3.org/2000/svg">
<rect width="100" height="100" rx="50" fill="white"/>
<path d="M36.9972 54.8092V57.3748H45.182V80.67H50.99V57.3748H59.1748V54.8564C59.1748 53.4398 59.1748 52.2908 59.1118 52.2593C59.1118 52.2121 54.1223 52.1964 48.0624 52.1964L37.0444 52.2436V54.8249L36.9972 54.8092ZM73.7815 52.1806C75.387 52.5584 76.6147 53.2824 77.7165 54.4314C78.2989 55.061 79.1646 56.1628 79.2275 56.4462C79.2275 56.5406 76.5045 58.3822 74.8518 59.4053C74.7889 59.4525 74.537 59.1849 74.2852 58.7757C73.4667 57.6109 72.6325 57.1072 71.3261 57.0128C69.4373 56.8869 68.1781 57.8785 68.1781 59.5312C68.1781 60.0349 68.2725 60.3182 68.4614 60.7274C68.8864 61.5931 69.6734 62.1125 72.1131 63.1829C76.6147 65.1189 78.5664 66.3938 79.7469 68.2196C81.0848 70.2658 81.3839 73.4768 80.4867 75.885C79.4794 78.5136 77.0239 80.2922 73.5139 80.8746C72.4121 81.0635 69.8937 81.032 68.7132 80.8274C66.1948 80.3552 63.7866 79.096 62.3071 77.4747C61.7247 76.8451 60.6071 75.161 60.6701 75.0508L61.2682 74.673L63.6292 73.3037L65.4078 72.2648L65.8171 72.8157C66.3365 73.6342 67.5012 74.736 68.1781 75.1138C70.2243 76.1683 72.963 76.0267 74.3167 74.799C74.899 74.2638 75.1509 73.6972 75.1509 72.9102C75.1509 72.1861 75.0407 71.8556 74.6787 71.3047C74.175 70.6121 73.1676 70.0455 70.3344 68.7863C67.0763 67.4012 65.6911 66.5197 64.4005 65.1661C63.6607 64.3476 62.9839 63.0727 62.6691 62.0181C62.433 61.1052 62.3543 58.8701 62.5746 57.9729C63.2515 54.8249 65.6282 52.6213 69.028 51.9917C70.1298 51.7714 72.7269 51.8658 73.813 52.1491L73.7815 52.1806Z" fill="#BCBCBC"/>
</svg>
